name D:\school\WTK\thesis\model\3dpredictsim\Results\MidTarsalJoint\Fal_s1_bCst_PF_Natali2010_ls150_MT_k400_d010_MTP_T5_ig24.mot
datacolumns 128
datarows 4
range 0.56424063 0.59809506
endheader
time	pelvis_tilt	pelvis_list	pelvis_rotation	pelvis_tx	pelvis_ty	pelvis_tz	hip_flexion_l	hip_adduction_l	hip_rotation_l	hip_flexion_r	hip_adduction_r	hip_rotation_r	knee_angle_l	knee_angle_r	ankle_angle_l	ankle_angle_r	subtalar_angle_l	subtalar_angle_r	mtj_angle_l	mtj_angle_r	mtp_angle_l	mtp_angle_r	lumbar_extension	lumbar_bending	lumbar_rotation	arm_flex_l	arm_add_l	arm_rot_l	arm_flex_r	arm_add_r	arm_rot_r	elbow_flex_l	elbow_flex_r	pro_sup_l	pro_sup_r	glut_med1_l/activation	glut_med2_l/activation	glut_med3_l/activation	glut_min1_l/activation	glut_min2_l/activation	glut_min3_l/activation	semimem_l/activation	semiten_l/activation	bifemlh_l/activation	bifemsh_l/activation	sar_l/activation	add_long_l/activation	add_brev_l/activation	add_mag1_l/activation	add_mag2_l/activation	add_mag3_l/activation	tfl_l/activation	pect_l/activation	grac_l/activation	glut_max1_l/activation	glut_max2_l/activation	glut_max3_l/activation	iliacus_l/activation	psoas_l/activation	quad_fem_l/activation	gem_l/activation	peri_l/activation	rect_fem_l/activation	vas_med_l/activation	vas_int_l/activation	vas_lat_l/activation	med_gas_l/activation	lat_gas_l/activation	soleus_l/activation	tib_post_l/activation	flex_dig_l/activation	flex_hal_l/activation	tib_ant_l/activation	per_brev_l/activation	per_long_l/activation	per_tert_l/activation	ext_dig_l/activation	ext_hal_l/activation	ercspn_l/activation	intobl_l/activation	extobl_l/activation	glut_med1_r/activation	glut_med2_r/activation	glut_med3_r/activation	glut_min1_r/activation	glut_min2_r/activation	glut_min3_r/activation	semimem_r/activation	semiten_r/activation	bifemlh_r/activation	bifemsh_r/activation	sar_r/activation	add_long_r/activation	add_brev_r/activation	add_mag1_r/activation	add_mag2_r/activation	add_mag3_r/activation	tfl_r/activation	pect_r/activation	grac_r/activation	glut_max1_r/activation	glut_max2_r/activation	glut_max3_r/activation	iliacus_r/activation	psoas_r/activation	quad_fem_r/activation	gem_r/activation	peri_r/activation	rect_fem_r/activation	vas_med_r/activation	vas_int_r/activation	vas_lat_r/activation	med_gas_r/activation	lat_gas_r/activation	soleus_r/activation	tib_post_r/activation	flex_dig_r/activation	flex_hal_r/activation	tib_ant_r/activation	per_brev_r/activation	per_long_r/activation	per_tert_r/activation	ext_dig_r/activation	ext_hal_r/activation	ercspn_r/activation	intobl_r/activation	extobl_r/activation	
          0.56424063	         -2.92998277	          2.13879412	         -5.16533495	          0.70530078	          0.91950255	          0.00173235	         29.57004653	          3.45192814	         -1.86891715	        -16.87411355	         -1.05094235	          6.76925114	        -11.79337540	         -7.27789041	          5.90470798	         -1.22170831	         -4.70327365	          8.68288013	         -0.02649127	          3.94218485	         -0.86305071	         13.18246240	         -2.02889380	         -0.29882326	          1.97405565	         -4.88097641	        -13.45352253	          6.10893525	          4.78929842	        -13.45221807	         15.89594485	         17.07933056	         34.14558788	         86.51662706	         86.51662706	          0.08427620	          0.05000021	          0.05940405	          0.05000010	          0.05000013	          0.05000068	          0.07850232	          0.05940433	          0.20559350	          0.05000033	          0.05000057	          0.11285749	          0.22217970	          0.20260739	          0.15616408	          0.10204458	          0.05940409	          0.05002626	          0.08919490	          0.05940898	          0.07057654	          0.10277974	          0.05000008	          0.05000010	          0.21828167	          0.05007431	          0.05000031	          0.05000020	          0.08492665	          0.08578487	          0.07341492	          0.05259473	          0.05000080	          0.05940349	          0.05000011	          0.05000055	          0.05000053	          0.48587108	          0.29375099	          0.17791936	          0.13907432	          0.46621424	          0.16338953	          0.05940412	          0.12661893	          0.11209590	          0.32641252	          0.10458932	          0.08297969	          0.31692667	          0.21265991	          0.11699203	          0.05000089	          0.05000019	          0.05000013	          0.06440104	          0.11351585	          0.05000011	          0.05000010	          0.05000013	          0.05000039	          0.05000032	          0.33040178	          0.05000049	          0.05000030	          0.05002139	          0.05000297	          0.05000079	          0.40809027	          0.62284630	          0.05000015	          0.05000062	          0.05262836	          0.21450050	          0.05000069	          0.05000041	          0.05000040	          0.30416202	          0.41443048	          0.33856289	          0.27661850	          0.28016352	          0.36812514	          0.05000004	          0.05776646	          0.13175411	          0.05000026	          0.05000007	          0.05000025	          0.05000001	          0.05000001	          0.05000003	
          0.57552544	         -2.92922880	          2.22956989	         -5.44533932	          0.72217059	          0.91856369	          0.00152938	         28.94520653	          3.81969427	         -1.67930042	        -16.79626844	         -1.35065548	          6.56588930	        -11.66081256	         -9.09695681	          5.31673462	         -1.76869866	         -5.09367084	          9.66568296	         -0.00693030	          3.29858275	         -0.86677660	         14.70238458	         -1.83984177	         -0.50172207	          2.04733691	         -5.73493897	        -13.45059534	          5.83856625	          4.53724809	        -13.46092655	         16.25751833	         16.67794837	         35.30259680	         86.51662706	         86.51662706	          0.07093489	          0.05000097	          0.05000020	          0.05940418	          0.05655897	          0.05000052	          0.06607497	          0.05000036	          0.17812003	          0.05000043	          0.05000425	          0.11075616	          0.20852089	          0.23973050	          0.18009706	          0.10332050	          0.05000025	          0.05033699	          0.07507524	          0.05000440	          0.05940396	          0.11810342	          0.05809592	          0.05203790	          0.52824493	          0.14064234	          0.09000591	          0.07057690	          0.18461275	          0.18472608	          0.15980608	          0.05000001	          0.05000004	          0.05000000	          0.05000028	          0.05000077	          0.05000084	          0.54544867	          0.24729326	          0.19426325	          0.31340343	          0.49242315	          0.16525259	          0.05000011	          0.10657440	          0.09435046	          0.27473958	          0.08803223	          0.06984357	          0.26675540	          0.17899464	          0.09847154	          0.05000221	          0.05000050	          0.05000056	          0.05420605	          0.09554584	          0.10153465	          0.07625797	          0.05014052	          0.05001062	          0.05000274	          0.27809736	          0.08695930	          0.05010181	          0.05000263	          0.05000186	          0.05000186	          0.34348722	          0.56811594	          0.05000204	          0.05937365	          0.05940409	          0.18054390	          0.05000174	          0.16268325	          0.14444576	          0.25601137	          0.34882371	          0.30020892	          0.24937725	          0.23581318	          0.31049072	          0.05000005	          0.05000037	          0.13537223	          0.05000020	          0.05000005	          0.05000025	          0.05000010	          0.07057676	          0.05000017	
          0.58681025	         -2.92477426	          2.32052079	         -5.69893560	          0.73936502	          0.91766804	          0.00134620	         28.20847394	          4.11508150	         -1.43213173	        -16.65447090	         -1.64922723	          6.35512529	        -12.03086126	        -11.01645865	          4.71796759	         -2.45686973	         -5.49999135	         10.61887555	         -0.15009268	          2.53046322	         -0.88612044	         16.27557623	         -1.62899713	         -0.71407899	          2.10927969	         -6.62480644	        -13.45365776	          5.61570513	          4.20680635	        -13.46727477	         16.54796061	         16.33228478	         36.43978698	         86.51662706	         86.51662706	          0.26440785	          0.05000009	          0.18606094	          0.05000029	          0.05000013	          0.22143121	          0.08130544	          0.07840683	          0.15733373	          0.05000014	          0.05000040	          0.09322296	          0.20199200	          0.20177998	          0.15158704	          0.12180201	          0.05000059	          0.05940601	          0.10672620	          0.05000017	          0.05000023	          0.09940711	          0.05940372	          0.05000220	          0.44462063	          0.11837789	          0.14664138	          0.05940417	          0.15538751	          0.15548290	          0.13450787	          0.05786804	          0.05940367	          0.05765448	          0.05000063	          0.05000149	          0.05000145	          0.48175870	          0.28958013	          0.16351028	          0.26379009	          0.52570988	          0.13909216	          0.05000002	          0.11835089	          0.07941422	          0.33420197	          0.07409622	          0.05878696	          0.22452663	          0.15065878	          0.08288295	          0.05000161	          0.05000050	          0.05000041	          0.05000012	          0.08042060	          0.13990298	          0.07051829	          0.05940504	          0.05940413	          0.05940360	          0.23407321	          0.08382296	          0.05001933	          0.05001512	          0.05001793	          0.05928310	          0.28911138	          0.54492712	          0.05264792	          0.05000108	          0.05000016	          0.15196275	          0.11648648	          0.13693038	          0.12157980	          0.21548324	          0.29360285	          0.25268405	          0.20989942	          0.19848275	          0.26133839	          0.05000001	          0.05000169	          0.16128769	          0.05000009	          0.05000003	          0.05000011	          0.05152965	          0.05940405	          0.05940399	
          0.59809506	         -2.91843956	          2.41300430	         -5.91883861	          0.75671191	          0.91683223	          0.00115814	         27.37263779	          4.36254539	         -1.17537060	        -16.42552006	         -1.94424269	          6.14400077	        -12.42172035	        -13.05585449	          4.17361013	         -3.30771618	         -5.89792872	         11.52507038	         -0.13146397	          1.69300764	         -0.85887412	         17.81315598	         -1.41426228	         -0.93677508	          2.16210822	         -7.50846201	        -13.46195475	          5.45378852	          3.82155497	        -13.47524673	         16.77779061	         16.01962921	         37.54837221	         86.51662706	         86.51662706	          0.32906827	          0.27003015	          0.30887119	          0.11980272	          0.20550413	          0.18637793	          0.06843436	          0.07532122	          0.13242690	          0.07398759	          0.05000261	          0.07846524	          0.17001549	          0.16983713	          0.12759014	          0.14144200	          0.05000044	          0.05000199	          0.08983109	          0.20180823	          0.15214415	          0.11466009	          0.05000007	          0.05000008	          0.37423458	          0.09963814	          0.12342740	          0.05000018	          0.13078893	          0.13086933	          0.11321464	          0.05000009	          0.05000019	          0.05000002	          0.05000004	          0.05000014	          0.05000017	          0.59006582	          0.33285872	          0.17894156	          0.55839046	          0.55299983	          0.25358832	          0.07235592	          0.09962123	          0.06684249	          0.30570132	          0.06236637	          0.05000009	          0.32761727	          0.12680868	          0.06976214	          0.05000245	          0.05000019	          0.05000016	          0.05000030	          0.06769081	          0.12030784	          0.05935497	          0.05000112	          0.05000118	          0.05000048	          0.21303551	          0.07055557	          0.05000061	          0.05000128	          0.05000075	          0.05000047	          0.24334342	          0.50648019	          0.05000010	          0.05000069	          0.05000035	          0.12790628	          0.09804646	          0.13324781	          0.11839254	          0.18137096	          0.24712377	          0.21268266	          0.17667113	          0.16706186	          0.21996706	          0.05000089	          0.07647035	          0.16143313	          0.05000043	          0.09959950	          0.05000055	          0.06642162	          0.05000004	          0.05000003	
